<svg version="1.1" xmlns="http://www.w3.org/2000/svg" xmlns:xlink="http://www.w3.org/1999/xlink" width="302.315" height="123.49287" viewBox="0,0,302.315,123.49287"><defs><radialGradient cx="180.93751" cy="219.03973" r="150.90024" gradientUnits="userSpaceOnUse" id="color-1"><stop offset="0" stop-color="#a00000" stop-opacity="0.25098"/><stop offset="1" stop-color="#ffcece" stop-opacity="0.2"/></radialGradient></defs><g transform="translate(-29.77275,-157.32243)"><g stroke-miterlimit="10"><path d="M331.83775,219.03831c0,1.14337 -0.04997,37.49649 -0.04329,38.6343c0.06329,10.78116 -13.40814,23.00258 -34.92292,22.69481h-233.91176c-23.63067,1.48371 -33.36668,-5.31421 -32.92253,-22.48679v-38.84232c0,-0.92568 0.00907,-42.14193 0.03159,-43.05941c0.30246,-12.32321 14.62663,-19.51379 30.84456,-18.26691h238.68666c16.90152,-0.59132 30.95625,8.29909 32.06974,18.66203c0.2379,2.21409 0.16795,40.40395 0.16795,42.66428z" fill="url(#color-1)" stroke="#ff0000" stroke-width="0.5"/><text transform="translate(101.27068,185.18163) scale(0.44414,0.44414)" font-size="40" xml:space="preserve" fill="#ffffff" stroke="#ffffff" stroke-width="1" font-family="Sans Serif" font-weight="normal" text-anchor="start"><tspan x="0" dy="0">Базовый апгрейд</tspan></text><text transform="translate(121.72441,206.04774) scale(0.36637,0.36637)" font-size="40" xml:space="preserve" fill="#ff9292" stroke="none" stroke-width="1" font-family="Sans Serif" font-weight="normal" text-anchor="start"><tspan x="0" dy="0">-1,000 CAT Coins</tspan></text><text transform="translate(133.03142,227.99013) scale(0.39648,0.39648)" font-size="40" xml:space="preserve" fill="#ffffff" stroke="#ffffff" stroke-width="0.3" font-family="Sans Serif" font-weight="normal" text-anchor="start"><tspan x="0" dy="0">+10 За клик</tspan></text><text transform="translate(124.93503,246.20028) scale(0.39648,0.39648)" font-size="40" xml:space="preserve" fill="#ffffff" stroke="#ffffff" stroke-width="0.3" font-family="Sans Serif" font-weight="normal" text-anchor="start"><tspan x="0" dy="0">+10 В секунду</tspan></text><text transform="translate(89.63246,264.99324) scale(0.39648,0.39648)" font-size="40" xml:space="preserve" fill="#ffffff" stroke="#ffffff" stroke-width="0.3" font-family="Sans Serif" font-weight="normal" text-anchor="start"><tspan x="0" dy="0">+10 Энергии в секунду</tspan></text></g></g></svg>