<svg version="1.1" xmlns="http://www.w3.org/2000/svg" xmlns:xlink="http://www.w3.org/1999/xlink" width="189.71444" height="104.0204" viewBox="0,0,189.71444,104.0204"><defs><radialGradient cx="255.32806" cy="488.11202" r="94.60267" gradientUnits="userSpaceOnUse" id="color-1"><stop offset="0" stop-color="#a00000" stop-opacity="0.25098"/><stop offset="1" stop-color="#000000" stop-opacity="0"/></radialGradient></defs><g transform="translate(-160.4663,-436.12634)"><g stroke-miterlimit="10"><path d="M349.93073,488.11082c0,0.96235 -0.03133,31.55997 -0.02714,32.51764c0.03968,9.07427 -8.40586,19.36076 -21.89394,19.10172h-146.64441c-14.81458,1.24881 -20.9183,-4.47285 -20.63986,-18.92664v-32.69273c0,-0.77913 0.00569,-35.46994 0.0198,-36.24216c0.18962,-10.37218 9.16975,-16.42433 19.33713,-15.37485h149.6379c10.59593,-0.4977 19.40715,6.98516 20.10522,15.70742c0.14914,1.86355 0.10529,34.00712 0.10529,35.90958z" fill="url(#color-1)" stroke="#e30000" stroke-width="0.5"/><text transform="translate(203.57042,457.61126) scale(0.4464,0.41656)" font-size="40" xml:space="preserve" fill="#ffffff" stroke="#ffffff" stroke-width="1" font-family="Sans Serif" font-weight="normal" text-anchor="start"><tspan x="0" dy="0">Автокликер</tspan></text><text transform="translate(211.11386,475.77752) scale(0.26971,0.28873)" font-size="40" xml:space="preserve" fill="#ff9292" stroke="none" stroke-width="1" font-family="Sans Serif" font-weight="normal" text-anchor="start"><tspan x="0" dy="0">-50,000 CAT Coins</tspan></text><text transform="translate(196.63212,509.03285) scale(0.37181,0.40975)" font-size="40" xml:space="preserve" fill="#ffffff" stroke="#ffffff" stroke-width="0.3" font-family="Sans Serif" font-weight="normal" text-anchor="start"><tspan x="0" dy="0">+1500 В секунду</tspan></text></g></g></svg>