<svg version="1.1" xmlns="http://www.w3.org/2000/svg" xmlns:xlink="http://www.w3.org/1999/xlink" width="85.5078" height="21.3867" viewBox="0,0,85.5078,21.3867"><g transform="translate(-137,-309)"><g fill="#ffffff" stroke="none" stroke-miterlimit="10"><path d="M151.8047,330.3086c-1.1524,0 -1.8555,-0.4492 -3.125,-1.9922l-6.34767,-7.0508h-0.19531v6.1719c0,1.8164 -0.95703,2.832 -2.59766,2.832c-1.62109,0 -2.53906,-1.0156 -2.53906,-2.832v-15.44922c0,-1.8164 0.91797,-2.83203 2.55859,-2.83203c1.6211,0 2.57813,1.03516 2.57813,2.83203v5.54688h0.19531l6.38677,-6.81641c1.1523,-1.32812 1.7578,-1.71875 2.7148,-1.71875c1.2305,0 2.2852,0.9375 2.2852,2.03125c0,0.78125 -0.254,1.46484 -1.0157,2.22656l-5.87888,5.91799l6.19138,6.6211c0.7813,0.8593 1.0547,1.5625 1.0547,2.3437c0,1.2305 -0.9961,2.168 -2.2656,2.168zM170.9453,327.4375v-14.19922h-5.6836l-0.1172,4.0625c-0.2539,10.07812 -1.582,13.08592 -5.957,13.08592c-0.9961,0 -1.7969,-0.2734 -2.3437,-0.7422c-0.5079,-0.4297 -0.7813,-1.0351 -0.7813,-1.7187c0,-0.7813 0.4102,-1.3477 1.0156,-1.5625c0.3907,-0.2344 0.7617,-0.3516 1.2305,-0.4297c1.8945,-0.1758 2.2461,-2.2656 2.3047,-9.00391l0.0586,-4.4336c0.0195,-2.05078 1.1523,-3.14453 3.3203,-3.14453h8.75c2.1875,0 3.3398,1.09375 3.3398,3.14453v14.94141c0,1.8164 -0.9375,2.832 -2.5781,2.832c-1.6211,0 -2.5586,-1.0156 -2.5586,-2.832zM197.4688,330.2695c-1.6016,0 -2.4415,-0.957 -2.4415,-2.8515v-10.70316h-0.1953l-6.8554,10.62496c-1.3868,2.2852 -2.1485,2.9297 -3.8282,2.9297c-1.6211,0 -2.5781,-1.1523 -2.5781,-3.1445v-15.11719c0,-1.89453 0.8203,-2.85156 2.4414,-2.85156c1.6211,0 2.4414,0.95703 2.4414,2.85156v10.70309h0.2149l6.8945,-10.62496c1.4453,-2.32422 2.1484,-2.94922 3.7305,-2.94922c1.6992,0 2.6172,1.09375 2.6172,2.96875v15.31253c0,1.8945 -0.8204,2.8515 -2.4414,2.8515zM220.2422,330.3086c-1.1524,0 -1.8555,-0.4492 -3.125,-1.9922l-6.3477,-7.0508h-0.1953v6.1719c0,1.8164 -0.957,2.832 -2.5976,2.832c-1.6211,0 -2.5391,-1.0156 -2.5391,-2.832v-15.44922c0,-1.8164 0.918,-2.83203 2.5586,-2.83203c1.6211,0 2.5781,1.03516 2.5781,2.83203v5.54688h0.1953l6.3867,-6.81641c1.1524,-1.32812 1.7579,-1.71875 2.7149,-1.71875c1.2305,0 2.2851,0.9375 2.2851,2.03125c0,0.78125 -0.2539,1.46484 -1.0156,2.22656l-5.8789,5.91799l6.1914,6.6211c0.7813,0.8593 1.0547,1.5625 1.0547,2.3437c0,1.2305 -0.9961,2.168 -2.2656,2.168z"/></g></g></svg>