<svg version="1.1" xmlns="http://www.w3.org/2000/svg" xmlns:xlink="http://www.w3.org/1999/xlink" width="337.93142" height="98.77549" viewBox="0,0,337.93142,98.77549"><defs><linearGradient x1="11.03763" y1="169.25002" x2="348.96534" y2="169.25002" gradientUnits="userSpaceOnUse" id="color-1"><stop offset="0" stop-color="#08007e"/><stop offset="1" stop-color="#4e001f"/></linearGradient><linearGradient x1="23.71215" y1="169.24839" x2="336.28748" y2="169.24839" gradientUnits="userSpaceOnUse" id="color-2"><stop offset="0" stop-color="#4e001f"/><stop offset="1" stop-color="#09007d"/></linearGradient></defs><g transform="translate(-11.03429,-119.86191)"><g stroke="none" stroke-miterlimit="10"><path d="M348.96571,203.09081c0,8.5854 -14.3118,15.54659 -31.95459,15.54659h-274.02595c-17.64651,0 -31.95088,-6.96299 -31.95088,-15.54659v-67.68412c0,-8.5854 14.30437,-15.54478 31.95088,-15.54478h274.02224c17.65394,0 31.95459,6.95938 31.95459,15.54478v67.68412z" fill="url(#color-1)"/><path d="M336.28414,135.4067v67.68231c0,5.17075 -8.64129,9.37673 -19.27673,9.37673h-274.02224c-10.6243,0 -19.27302,-4.20598 -19.27302,-9.37673v-67.68412c0,-5.17075 8.64872,-9.37673 19.27302,-9.37673h274.02224c10.63544,0 19.27673,4.20779 19.27673,9.37854z" fill="url(#color-2)"/><text transform="translate(92.45002,145.00477) scale(0.5,0.5)" font-size="40" xml:space="preserve" fill="#ffffff" font-family="Sans Serif" font-weight="normal" text-anchor="start"><tspan x="0" dy="0">Базовый обгрейд</tspan></text><text transform="translate(218.54025,166.57114) scale(0.5,0.5)" font-size="40" xml:space="preserve" fill="#ffffff" font-family="Sans Serif" font-weight="normal" text-anchor="start"><tspan x="0" dy="0">+10 За клик</tspan></text><text transform="translate(218.54025,183.04929) scale(0.5,0.5)" font-size="40" xml:space="preserve" fill="#ffffff" font-family="Sans Serif" font-weight="normal" text-anchor="start"><tspan x="0" dy="0">+10 В секун</tspan></text><text transform="translate(35.72988,179.39973) scale(0.5,0.5)" font-size="40" xml:space="preserve" fill="#ffffff" font-family="Sans Serif" font-weight="normal" text-anchor="start"><tspan x="0" dy="0">-100,000 CAT Coins</tspan></text><text transform="translate(218.63546,201.32107) scale(0.5,0.5)" font-size="40" xml:space="preserve" fill="#ffffff" font-family="Sans Serif" font-weight="normal" text-anchor="start"><tspan x="0" dy="0">+5 Энерг в с</tspan></text></g></g></svg>