<svg version="1.1" xmlns="http://www.w3.org/2000/svg" xmlns:xlink="http://www.w3.org/1999/xlink" width="383.36269" height="127.15823" viewBox="0,0,383.36269,127.15823"><defs><radialGradient cx="180.00246" cy="356.47794" r="150.90024" gradientUnits="userSpaceOnUse" id="color-1"><stop offset="0" stop-color="#a00000" stop-opacity="0.25098"/><stop offset="1" stop-color="#fff5b9" stop-opacity="0.2"/></radialGradient></defs><g transform="translate(-28.8377,-292.92883)"><g stroke-miterlimit="10"><path d="M330.9027,356.47648c0,1.17745 -0.04997,38.61394 -0.04329,39.78565c0.06329,11.10246 -13.40814,23.68808 -34.92292,23.37115h-233.91176c-23.63067,1.52793 -33.36668,-5.47258 -32.92253,-23.15693v-39.99988c0,-0.95327 0.00907,-43.39782 0.03159,-44.34264c0.30246,-12.69046 14.62663,-20.09533 30.84456,-18.81128h238.68666c16.90152,-0.60894 30.95625,8.54641 32.06974,19.21818c0.2379,2.28007 0.16795,41.60805 0.16795,43.93573z" fill="url(#color-1)" stroke="#ff0000" stroke-width="0.5"/><text transform="translate(100.72474,321.83362) scale(0.44414,0.44414)" font-size="40" xml:space="preserve" fill="#ffffff" stroke="#ffffff" stroke-width="1" font-family="Sans Serif" font-weight="normal" text-anchor="start"><tspan x="0" dy="0">Богатый апгрейд</tspan></text><text transform="translate(113.98747,343.74567) scale(0.36637,0.36637)" font-size="40" xml:space="preserve" fill="#ff9292" stroke="none" stroke-width="1" font-family="Sans Serif" font-weight="normal" text-anchor="start"><tspan x="0" dy="0">-10,000 CAT Coins</tspan></text><text transform="translate(131.48548,370.75104) scale(0.39648,0.39648)" font-size="40" xml:space="preserve" fill="#ffffff" stroke="#ffffff" stroke-width="0.3" font-family="Sans Serif" font-weight="normal" text-anchor="start"><tspan x="0" dy="0">+150 За клик</tspan></text><text transform="translate(123.38909,388.96119) scale(0.39648,0.39648)" font-size="40" xml:space="preserve" fill="#ffffff" stroke="#ffffff" stroke-width="0.3" font-family="Sans Serif" font-weight="normal" text-anchor="start"><tspan x="0" dy="0">+150 В секунду</tspan></text><text transform="translate(88.08652,408.0596) scale(0.39648,0.39648)" font-size="40" xml:space="preserve" fill="#ffffff" stroke="#ffffff" stroke-width="0.3" font-family="Sans Serif" font-weight="normal" text-anchor="start"><tspan x="0" dy="0">+125 Энергии в секунду</tspan></text><text transform="translate(406.24206,355.02844) scale(0.5,0.5)" font-size="40" xml:space="preserve" fill="#ff9292" stroke="none" stroke-width="1" font-family="Sans Serif" font-weight="normal" text-anchor="start"><tspan x="0" dy="0"> </tspan></text></g></g></svg>