<svg version="1.1" xmlns="http://www.w3.org/2000/svg" xmlns:xlink="http://www.w3.org/1999/xlink" width="338.93581" height="144.33011" viewBox="0,0,338.93581,144.33011"><defs><linearGradient x1="11.43442" y1="280.3523" x2="349.36213" y2="280.3523" gradientUnits="userSpaceOnUse" id="color-1"><stop offset="0" stop-color="#08007e"/><stop offset="1" stop-color="#4e001f"/></linearGradient><linearGradient x1="24.10894" y1="280.35067" x2="336.68427" y2="280.35067" gradientUnits="userSpaceOnUse" id="color-2"><stop offset="0" stop-color="#4e001f"/><stop offset="1" stop-color="#09007d"/></linearGradient></defs><g transform="translate(-11.43108,-230.96419)"><g stroke="none" stroke-miterlimit="10"><path d="M349.3625,314.19309c0,8.5854 -14.3118,15.54659 -31.95459,15.54659h-274.02595c-17.64651,0 -31.95088,-6.96299 -31.95088,-15.54659v-67.68412c0,-8.5854 14.30437,-15.54478 31.95088,-15.54478h274.02224c17.65394,0 31.95459,6.95938 31.95459,15.54478v67.68412z" fill="url(#color-1)"/><path d="M336.68093,246.50898v67.68231c0,5.17075 -8.64129,9.37673 -19.27673,9.37673h-274.02224c-10.6243,0 -19.27302,-4.20598 -19.27302,-9.37673v-67.68412c0,-5.17075 8.64872,-9.37673 19.27302,-9.37673h274.02224c10.63544,0 19.27673,4.20779 19.27673,9.37854z" fill="url(#color-2)"/><text transform="translate(94.01003,255.3632) scale(0.5,0.5)" font-size="40" xml:space="preserve" fill="#ffffff" font-family="Sans Serif" font-weight="normal" text-anchor="start"><tspan x="0" dy="0">Богатый обгрейд</tspan></text><text transform="translate(218.93704,277.67342) scale(0.5,0.5)" font-size="40" xml:space="preserve" fill="#ffffff" font-family="Sans Serif" font-weight="normal" text-anchor="start"><tspan x="0" dy="0">+50 За клик</tspan></text><text transform="translate(218.93704,294.15157) scale(0.5,0.5)" font-size="40" xml:space="preserve" fill="#ffffff" font-family="Sans Serif" font-weight="normal" text-anchor="start"><tspan x="0" dy="0">+50 В секун</tspan></text><text transform="translate(24.14119,290.50201) scale(0.5,0.5)" font-size="40" xml:space="preserve" fill="#ffffff" font-family="Sans Serif" font-weight="normal" text-anchor="start"><tspan x="0" dy="0">-1,000,000 CAT Coins</tspan></text><text transform="translate(219.03225,312.42335) scale(0.45128,0.5)" font-size="40" xml:space="preserve" fill="#ffffff" font-family="Sans Serif" font-weight="normal" text-anchor="start"><tspan x="0" dy="0">+25 Энерг в с</tspan></text><text transform="translate(17.07398,369.39974) scale(0.47156,0.47156)" font-size="40" xml:space="preserve" fill-opacity="0.16863" fill="#ffffff" font-family="Sans Serif" font-weight="normal" text-anchor="start"><tspan x="0" dy="0">Скоро появится больше обгрейдов</tspan></text><text transform="translate(402.12816,227.2431) scale(0.5,0.5)" font-size="40" xml:space="preserve" fill-opacity="0.16863" fill="#ffffff" font-family="Sans Serif" font-weight="normal" text-anchor="start"><tspan x="0" dy="0"> </tspan></text></g></g></svg>